<?xml version="1.0" encoding="UTF-8"?>
<svg id="Layer_1" xmlns="http://www.w3.org/2000/svg" viewBox="0 0 950 754">
  <defs>
    <style>
      .cls-1 {
        fill: #171717;
      }

      .cls-2 {
        fill: #545aff;
      }
    </style>
  </defs>
  <path class="cls-2" d="m595.83,116.81c-85.37,81.73-139.1,227.56-80.94,288.3,58.16,60.74,206.18,13.4,291.55-68.33,85.37-81.73,95.69-186,37.53-246.74-58.16-60.74-162.78-54.96-248.14,26.77Z" />
  <path class="cls-2" d="m721.89,683.95c33.59-40.16,22.82-104.49-33.62-151.69-56.44-47.2-150.36-70.42-183.94-30.26-33.59,40.16,5.88,128.49,62.32,175.69,56.44,47.2,121.66,46.42,155.24,6.26Z" />
  <path class="cls-2" d="m412.53,405.11c58.16-60.75,4.42-206.57-80.94-288.3C246.22,35.08,141.6,29.3,83.45,90.04c-58.16,60.75-47.83,165.01,37.53,246.74,85.37,81.73,233.39,129.07,291.55,68.33Z" />
  <path class="cls-2" d="m239.15,532.26c-56.44,47.2-67.21,111.53-33.62,151.69,33.59,40.16,98.81,40.94,155.24-6.26,56.44-47.2,95.9-135.53,62.32-175.69-33.59-40.16-127.51-16.94-183.94,30.26Z" />
</svg>