<?xml version="1.0" encoding="UTF-8"?>
<svg id="Layer_1" xmlns="http://www.w3.org/2000/svg" viewBox="0 0 3685.57 753.9">
  <defs>
    <style>
      .cls-1 {
        fill: white;
      }

      .cls-2 {
        fill: #545aff;
      }
    </style>
  </defs>
  <path class="cls-2" d="m595.83,116.81c-85.37,81.73-139.1,227.56-80.94,288.3,58.16,60.74,206.18,13.4,291.55-68.33,85.37-81.73,95.69-186,37.53-246.74-58.16-60.74-162.78-54.96-248.14,26.77Z" />
  <path class="cls-2" d="m721.89,683.95c33.59-40.16,22.82-104.49-33.62-151.69-56.44-47.2-150.36-70.42-183.94-30.26-33.59,40.16,5.88,128.49,62.32,175.69,56.44,47.2,121.66,46.42,155.24,6.26Z" />
  <path class="cls-2" d="m412.53,405.11c58.16-60.75,4.42-206.57-80.94-288.3C246.22,35.08,141.6,29.3,83.45,90.04c-58.16,60.75-47.83,165.01,37.53,246.74,85.37,81.73,233.39,129.07,291.55,68.33Z" />
  <path class="cls-2" d="m239.15,532.26c-56.44,47.2-67.21,111.53-33.62,151.69,33.59,40.16,98.81,40.94,155.24-6.26,56.44-47.2,95.9-135.53,62.32-175.69-33.59-40.16-127.51-16.94-183.94,30.26Z" />
  <path class="cls-1" d="m1164.13,143.37v512.68h-100.99V143.37h100.99Z" />
  <path class="cls-1" d="m1331.71,272.28l8.98,48.63c24.69-29.92,60.6-53.11,120.45-53.11,83.79,0,154.11,44.89,154.11,175.05v213.21h-95.01v-204.23c0-68.08-27.68-104.73-83.79-104.73s-92.77,41.89-92.77,113.71v195.25h-95.01v-383.78h83.04Z" />
  <path class="cls-1" d="m1721.24,272.28v-32.17c0-69.57,35.91-107.73,111.47-107.73h82.29v81.54h-66.58c-23.19,0-33.66,10.47-33.66,33.66v24.69h100.24v81.54h-98.75v302.23h-95.01v-302.23h-65.09v-81.54h65.09Z" />
  <path class="cls-1" d="m1933.71,464.54c0-118.2,80.05-196.75,199.74-196.75s199.74,78.55,199.74,196.75-80.05,196-199.74,196-199.74-78.55-199.74-196Zm302.23,0c0-69.57-39.65-118.2-102.49-118.2s-102.49,48.63-102.49,118.2,39.65,117.45,102.49,117.45,102.49-48.63,102.49-117.45Z" />
  <path class="cls-1" d="m2424.72,353.82h-65.09v-81.54h65.09v-85.76h95.01v85.76h90.52v81.54h-90.52v181.04c0,28.43,10.47,39.65,39.65,39.65h53.86v81.54h-81.54c-73.31,0-106.98-35.16-106.98-107.73v-194.5Z" />
  <path class="cls-1" d="m2846.18,267.79c104.73,0,166.08,48.63,166.08,139.89v142.89c0,20.2,7.48,24.69,23.94,24.69h14.21v80.8h-49.38c-53.11,0-71.07-24.69-70.32-62.09-26.18,40.4-65.08,66.58-125.68,66.58-83.79,0-142.89-40.4-142.89-112.22,0-80.79,59.1-125.68,170.57-125.68h85.28v-20.95c0-38.15-26.93-62.09-75.56-62.09-44.14,0-73.31,20.2-78.55,50.87h-92.02c7.48-74.81,74.81-122.69,174.31-122.69Zm-88.28,273.8c0,29.18,23.94,48.63,62.84,48.63,60.6,0,96.5-36.66,97.25-92.02v-10.47h-86.78c-47.13,0-73.31,18.7-73.31,53.86Z" />
  <path class="cls-1" d="m3198.8,143.37v512.68h-95.01V143.37h95.01Z" />
  <path class="cls-1" d="m3258.15,465.29c0-118.95,77.8-197.5,193.76-197.5s189.27,71.07,190.77,183.28c0,11.22-.75,22.44-2.24,34.41h-282.78v5.24c2.24,59.1,39.65,95.76,97.25,95.76,45.63,0,77.8-20.95,88.28-59.85h94.26c-12.72,74.81-78.55,133.91-178.05,133.91-124.93,0-201.24-77.8-201.24-195.25Zm194.51-124.93c-47.88,0-86.78,30.67-92.76,80.05h186.28c-6.73-51.62-41.89-80.05-93.51-80.05Z" />
</svg>